<svg version="1" xmlns="http://www.w3.org/2000/svg" width="1365.333" height="1365.333" viewBox="0 0 1024.000000 1024.000000"><path d="M92.8 68.5c-.2.1-4.3.6-9.2.9-4.9.4-9.2.9-9.5 1-.3.2-2.8.6-5.6 1-12.6 1.5-29.4 8.3-33.9 13.7-2.6 3-2.6 3.3-2.6 19 0 16.6.4 18.7 4.4 22.1 4.2 3.7 16.1 8.7 24 10.2 1.2.2 3.3.7 4.9 1.1l2.7.7V992H140.7l.1-190.1c0-104.5.2-190.2.4-190.4.4-.4 18.9-6 31.8-9.6 3.6-1 15.1-4.3 25.5-7.4 24.3-7.1 59.6-17.5 61.5-18 .8-.2 9.2-2.6 18.5-5.4 46.5-13.6 79.2-23.2 80.5-23.6.8-.2 5.6-1.5 10.5-3 5-1.4 11.5-3.2 14.5-4.1 3-.9 6.6-2 8-2.4 1.4-.5 6.6-2.1 11.6-3.4l9.1-2.5 6.9 2c3.8 1.1 8.3 2.4 9.9 2.9 1.7.4 10.9 3.1 20.5 6 9.6 2.8 18.4 5.3 19.4 5.5 1.1.3 4.7 1.3 8 2.4 3.4 1.1 10.8 3.3 16.6 5 5.8 1.6 14.6 4.2 19.5 5.6 5 1.5 19.8 5.8 33 9.7 41.9 12.2 56.4 16.4 79.5 23.2 12.4 3.7 23.2 6.8 24 7.1.8.2 8.8 2.5 17.8 5.1l16.3 4.7 12.7-3.7c7-2 13.4-3.9 14.2-4.1.8-.2 13.2-3.8 27.5-8 30.8-9.1 45.4-13.4 47.5-14 .8-.2 7.8-2.2 15.5-4.5 7.7-2.2 16.9-4.9 20.5-5.9 21.9-6.3 52.7-15.4 68.5-20.2 1.7-.5 10.2-3 19-5.5 19.7-5.7 29.9-8.6 39-11.3 3.8-1.2 7.1-2.1 7.2-2.1.2 0 .3-100.2.3-222.6V86.9l-2.2.7c-1.3.4-4.3 1.3-6.8 2-4.9 1.3-45.6 13.2-75 21.9-33.4 9.8-87.5 25.7-89 26.1-2 .4-7.8 2.1-32.5 9.4-11.5 3.4-27.7 8.2-36 10.6-8.2 2.4-18.6 5.4-23 6.6l-8 2.1-43-12.6c-53.7-15.7-57.2-16.7-72.2-21.1-6.8-2-17.8-5.2-24.5-7.2-6.8-1.9-13-3.7-13.8-3.9-.8-.3-5.3-1.6-10-3-10-3-9.3-2.8-15-4.4-2.5-.7-14.2-4.1-26-7.6s-31.7-9.3-44.1-12.9L412.2 87l-18.8 5.5c-10.4 3.1-25 7.4-32.4 9.6-7.4 2.2-14.2 4.2-15 4.4-.8.2-5.5 1.6-10.5 3-4.9 1.5-9.7 2.9-10.5 3.1-.8.2-6.9 2-13.5 3.9-6.6 2-12.7 3.8-13.5 4-.8.2-3.9 1.1-6.7 2-2.9.8-7.7 2.2-10.5 3-2.9.9-6 1.8-6.8 2-.8.2-30.1 8.8-65 19-34.9 10.3-64.6 18.8-65.9 18.9l-2.3.1v-13.4c0-14.1.3-15.1 4.8-15.1 3.7 0 17.6-5 23-8.2 8-4.7 8.4-6 8.4-24.6 0-14.6-.2-16.1-2.1-18.6-5.7-7.2-23.1-13.2-47.4-16.2-4.2-.6-34.2-1.3-34.7-.9z"/></svg>