<?xml version="1.0" encoding="utf-8"?><!DOCTYPE svg PUBLIC "-//W3C//DTD SVG 1.1//EN" "http://www.w3.org/Graphics/SVG/1.1/DTD/svg11.dtd"><svg version="1.1" xmlns="http://www.w3.org/2000/svg" xmlns:xlink="http://www.w3.org/1999/xlink" x="0px" y="0px" width="189px" height="48px" viewBox="0 0 189 48" xml:space="preserve"><path fill="#ffffff" d="M10.88,19.3l-0.77,3.84h9.34l-1.15,5.7H8.99L7.55,36H0l4.48-22.4h18.21l-1.15,5.7H10.88z M24.8,12.26h7.23 L27.3,36h-7.23L24.8,12.26z M52.9,18.5L49.41,36h-6.82l0.32-1.6c-1.32,1.28-2.9,1.92-4.74,1.92c-1.19,0-2.35-0.32-3.46-0.96 c-1.11-0.64-2.01-1.57-2.7-2.8c-0.69-1.23-1.04-2.67-1.04-4.34c0-1.88,0.42-3.58,1.26-5.12c0.84-1.54,1.98-2.74,3.41-3.62 c1.43-0.88,2.98-1.31,4.64-1.31c2.35,0,4.01,0.73,4.99,2.18l0.38-1.86H52.9z M38.99,29.87c0.46,0.5,1.09,0.75,1.9,0.75 c0.94,0,1.7-0.36,2.29-1.09c0.59-0.73,0.88-1.7,0.88-2.91c0-0.83-0.23-1.5-0.69-2c-0.46-0.5-1.09-0.75-1.9-0.75 c-0.94,0-1.7,0.36-2.29,1.09c-0.59,0.73-0.88,1.7-0.88,2.91C38.3,28.7,38.53,29.37,38.99,29.87z M75.33,18.5l-2.78,13.98 c-0.68,3.48-2.03,6.02-4.05,7.63c-2.02,1.61-4.66,2.42-7.92,2.42c-3.58,0-6.48-0.73-8.67-2.18l3.07-4.93 c0.7,0.53,1.57,0.96,2.61,1.26c1.03,0.31,2.07,0.46,3.12,0.46c1.34,0,2.35-0.28,3.02-0.83c0.67-0.55,1.11-1.39,1.33-2.5l0.1-0.45 c-1.19,1.11-2.67,1.66-4.42,1.66c-1.32,0-2.56-0.3-3.71-0.91s-2.08-1.49-2.78-2.64c-0.7-1.15-1.06-2.49-1.06-4 c0-1.71,0.42-3.27,1.25-4.69c0.83-1.42,1.97-2.54,3.41-3.38s3.02-1.25,4.75-1.25c2.75,0,4.53,0.99,5.34,2.98l0.51-2.66H75.33z M61.17,28.75c0.46,0.42,1.08,0.62,1.87,0.62c0.94,0,1.69-0.3,2.26-0.9c0.56-0.6,0.85-1.39,0.85-2.37c0-0.66-0.22-1.2-0.67-1.62 c-0.45-0.42-1.07-0.62-1.86-0.62c-0.94,0-1.7,0.3-2.27,0.9c-0.58,0.6-0.86,1.39-0.86,2.37C60.48,27.8,60.71,28.34,61.17,28.75z M115.2,13.6L103.55,36h-8.1l-1.28-11.81L88.03,36h-8.1l-2.69-22.4h7.46l1.44,12.77L92.8,13.6h6.94l1.28,12.96l6.75-12.96H115.2z M133.28,18.5L129.79,36h-6.82l0.32-1.6c-1.32,1.28-2.9,1.92-4.74,1.92c-1.2,0-2.35-0.32-3.46-0.96c-1.11-0.64-2.01-1.57-2.7-2.8 c-0.69-1.23-1.04-2.67-1.04-4.34c0-1.88,0.42-3.58,1.26-5.12c0.84-1.54,1.98-2.74,3.41-3.62c1.43-0.88,2.98-1.31,4.64-1.31 c2.35,0,4.01,0.73,4.99,2.18l0.38-1.86H133.28z M119.38,29.87c0.46,0.5,1.09,0.75,1.9,0.75c0.94,0,1.7-0.36,2.29-1.09 s0.88-1.7,0.88-2.91c0-0.83-0.23-1.5-0.69-2c-0.46-0.5-1.09-0.75-1.9-0.75c-0.94,0-1.7,0.36-2.29,1.09 c-0.59,0.73-0.88,1.7-0.88,2.91C118.69,28.7,118.92,29.37,119.38,29.87z M155.65,18.5L145.12,36h-7.49l-3.55-17.5h7.14l1.73,9.41 l5.57-9.41H155.65z M172.61,28.93h-12.26c0.15,0.73,0.5,1.25,1.06,1.57s1.32,0.48,2.3,0.48c1.45,0,2.72-0.4,3.81-1.22l3.01,4.38 c-2.13,1.45-4.68,2.18-7.65,2.18c-1.9,0-3.58-0.33-5.04-0.99c-1.46-0.66-2.59-1.6-3.39-2.82s-1.2-2.64-1.2-4.29 c0-1.92,0.45-3.64,1.36-5.17c0.91-1.52,2.18-2.72,3.82-3.58c1.64-0.86,3.53-1.3,5.66-1.3c1.83,0,3.42,0.33,4.77,0.98 s2.37,1.56,3.07,2.72c0.7,1.16,1.06,2.5,1.06,4.02C172.99,26.85,172.86,27.86,172.61,28.93z M161.81,23.73 c-0.52,0.42-0.91,0.99-1.17,1.71h5.73c0-0.73-0.23-1.3-0.7-1.71c-0.47-0.42-1.1-0.62-1.89-0.62S162.33,23.31,161.81,23.73z M188.96,18.18l-1.28,6.4c-0.53-0.08-1.06-0.13-1.57-0.13c-1.24,0-2.21,0.27-2.93,0.82c-0.71,0.54-1.2,1.42-1.46,2.64L180.1,36 h-7.23l3.49-17.5h6.82l-0.35,1.79C184.25,18.88,186.29,18.18,188.96,18.18z" /></svg>
